<?xml version="1.0" standalone="no"?>
<!DOCTYPE svg PUBLIC "-//W3C//DTD SVG 20010904//EN"
 "http://www.w3.org/TR/2001/REC-SVG-20010904/DTD/svg10.dtd">
<svg version="1.0" xmlns="http://www.w3.org/2000/svg"
 width="16.000000pt" height="16.000000pt" viewBox="0 0 16.000000 16.000000"
 preserveAspectRatio="xMidYMid meet">
<metadata>
Created by potrace 1.11, written by Peter Selinger 2001-2013
</metadata>
<g transform="translate(0.000000,16.000000) scale(0.002286,-0.002286)"
fill="#000000" stroke="none">
<path d="M2670 6013 c0 -35 3 -63 8 -63 4 -1 81 -2 172 -4 318 -7 476 -61 540
-187 20 -38 26 -61 38 -144 9 -56 7 -3898 -2 -3960 -3 -22 -8 -55 -11 -73 -3
-17 -8 -47 -10 -65 -6 -48 -52 -200 -80 -267 -119 -282 -344 -451 -660 -495
-62 -9 -245 -8 -311 1 -239 32 -437 146 -559 321 -49 69 -99 162 -92 169 2 3
17 0 32 -6 136 -52 359 -79 485 -59 86 14 105 19 175 44 204 75 369 220 472
415 74 142 104 257 105 415 1 128 -6 179 -43 290 -111 334 -426 589 -779 629
-66 8 -205 9 -240 1 -13 -2 -42 -7 -63 -10 -111 -17 -280 -90 -384 -166 -208
-152 -366 -413 -399 -659 -3 -25 -8 -49 -11 -53 -5 -9 -5 -253 0 -282 3 -11 8
-42 11 -70 49 -353 301 -696 653 -889 176 -96 414 -181 596 -211 17 -3 58 -10
90 -16 60 -10 70 -12 217 -25 144 -12 563 -5 590 11 3 2 32 6 66 10 58 6 290
51 384 75 153 38 478 157 550 201 8 5 26 14 40 20 42 18 202 111 255 148 286
202 449 412 489 631 30 164 32 184 42 360 4 63 7 896 8 1850 2 1636 3 1738 20
1794 36 120 99 186 217 227 55 19 86 22 226 23 101 1 163 5 164 11 4 37 3 115
-1 116 -3 1 -679 3 -1502 3 l-1498 2 0 -63z"/>
</g>
</svg>
